<svg width="110" height="110" viewBox="0 0 110 110" fill="none" xmlns="http://www.w3.org/2000/svg">
<g filter="url(#filter0_dd_2005_117)">
<circle cx="55" cy="55" r="50" fill="white"/>
</g>
<path d="M38.3334 71.6668C37.1876 71.6668 36.207 71.2592 35.3917 70.4439C34.5765 69.6286 34.1681 68.6474 34.1667 67.5002V42.5002C34.1667 41.3543 34.5751 40.3738 35.3917 39.5585C36.2084 38.7432 37.189 38.3349 38.3334 38.3335H71.6668C72.8126 38.3335 73.7938 38.7418 74.6105 39.5585C75.4272 40.3752 75.8348 41.3557 75.8334 42.5002V67.5002C75.8334 68.646 75.4258 69.6272 74.6105 70.4439C73.7952 71.2606 72.814 71.6682 71.6668 71.6668H38.3334ZM55.0001 57.0835L71.6668 46.6668V42.5002L55.0001 52.9168L38.3334 42.5002V46.6668L55.0001 57.0835Z" fill="#292C60"/>
<defs>
<filter id="filter0_dd_2005_117" x="0" y="0" width="110" height="110" filterUnits="userSpaceOnUse" color-interpolation-filters="sRGB">
<feFlood flood-opacity="0" result="BackgroundImageFix"/>
<feColorMatrix in="SourceAlpha" type="matrix" values="0 0 0 0 0 0 0 0 0 0 0 0 0 0 0 0 0 0 127 0" result="hardAlpha"/>
<feOffset/>
<feGaussianBlur stdDeviation="0.5"/>
<feColorMatrix type="matrix" values="0 0 0 0 0 0 0 0 0 0 0 0 0 0 0 0 0 0 0.1 0"/>
<feBlend mode="normal" in2="BackgroundImageFix" result="effect1_dropShadow_2005_117"/>
<feColorMatrix in="SourceAlpha" type="matrix" values="0 0 0 0 0 0 0 0 0 0 0 0 0 0 0 0 0 0 127 0" result="hardAlpha"/>
<feOffset/>
<feGaussianBlur stdDeviation="2.5"/>
<feColorMatrix type="matrix" values="0 0 0 0 0 0 0 0 0 0 0 0 0 0 0 0 0 0 0.1 0"/>
<feBlend mode="normal" in2="effect1_dropShadow_2005_117" result="effect2_dropShadow_2005_117"/>
<feBlend mode="normal" in="SourceGraphic" in2="effect2_dropShadow_2005_117" result="shape"/>
</filter>
</defs>
</svg>
