<svg width="1177" height="384" viewBox="0 0 1177 384" fill="none" xmlns="http://www.w3.org/2000/svg">
<path d="M43.3257 233.551L51.9282 245.712C59.5227 256.448 71.5343 263.139 84.5643 263.893L99.3238 264.746L87.3058 273.357C76.696 280.958 70.1209 293.034 69.4409 306.167L68.6706 321.043L60.0681 308.882C52.4736 298.146 40.462 291.454 27.432 290.701L12.6725 289.848L24.6905 281.237C35.3003 273.636 41.8754 261.56 42.5554 248.427L43.3257 233.551Z" fill="url(#paint0_linear_2001_112)"/>
<path d="M165.591 329.834L170.254 336.385C174.371 342.168 180.897 345.762 187.986 346.151L196.015 346.591L189.464 351.254C183.681 355.371 180.087 361.897 179.698 368.986L179.258 377.015L174.595 370.464C170.478 364.681 163.952 361.087 156.863 360.698L148.834 360.258L155.385 355.595C161.168 351.478 164.762 344.952 165.151 337.863L165.591 329.834Z" fill="url(#paint1_linear_2001_112)"/>
<path d="M97.1827 319.164L102.754 326.99C107.673 333.899 115.469 338.193 123.937 338.657L133.529 339.183L125.703 344.754C118.794 349.673 114.5 357.469 114.036 365.937L113.511 375.529L107.939 367.703C103.021 360.794 95.2245 356.5 86.7563 356.036L77.164 355.511L84.9901 349.939C91.8992 345.021 96.1932 337.225 96.6572 328.756L97.1827 319.164Z" fill="url(#paint2_linear_2001_112)"/>
<path d="M1132.34 10.6506L1133.76 25.4792C1135.01 38.5702 1142.1 50.3479 1153.03 57.4797L1165.42 65.5582L1150.71 67.054C1137.72 68.3745 1126.02 75.5831 1118.9 86.64L1110.83 99.1646L1109.41 84.336C1108.16 71.245 1101.07 59.4673 1090.14 52.3355L1077.75 44.257L1092.46 42.7612C1105.45 41.4406 1117.16 34.232 1124.27 23.1751L1132.34 10.6506Z" fill="url(#paint3_linear_2001_112)"/>
<path d="M1143.53 116.833L1145.04 126.32C1146.37 134.696 1151.44 142.01 1158.82 146.193L1167.18 150.931L1157.69 152.439C1149.31 153.77 1142 158.843 1137.82 166.22L1133.08 174.577L1131.57 165.09C1130.24 156.714 1125.17 149.4 1117.79 145.217L1109.43 140.479L1118.92 138.971C1127.3 137.64 1134.61 132.568 1138.79 125.19L1143.53 116.833Z" fill="url(#paint4_linear_2001_112)"/>
<defs>
<linearGradient id="paint0_linear_2001_112" x1="43.3257" y1="233.551" x2="68.6706" y2="321.043" gradientUnits="userSpaceOnUse">
<stop stop-color="#AEBFFF"/>
<stop offset="1" stop-color="#DBE3FF"/>
</linearGradient>
<linearGradient id="paint1_linear_2001_112" x1="165.591" y1="329.834" x2="179.258" y2="377.015" gradientUnits="userSpaceOnUse">
<stop stop-color="#AEBFFF"/>
<stop offset="1" stop-color="#DBE3FF"/>
</linearGradient>
<linearGradient id="paint2_linear_2001_112" x1="97.1827" y1="319.164" x2="113.511" y2="375.529" gradientUnits="userSpaceOnUse">
<stop stop-color="#F8CAE5"/>
<stop offset="1" stop-color="#FFB3E0"/>
</linearGradient>
<linearGradient id="paint3_linear_2001_112" x1="1132.34" y1="10.6506" x2="1110.83" y2="99.1646" gradientUnits="userSpaceOnUse">
<stop stop-color="#AEBFFF"/>
<stop offset="1" stop-color="#DBE3FF"/>
</linearGradient>
<linearGradient id="paint4_linear_2001_112" x1="1143.53" y1="116.833" x2="1133.08" y2="174.577" gradientUnits="userSpaceOnUse">
<stop stop-color="#F8CAE5"/>
<stop offset="1" stop-color="#FFB3E0"/>
</linearGradient>
</defs>
</svg>
